<?xml version="1.0" encoding="UTF-8"?><svg id="Capa_2" xmlns="http://www.w3.org/2000/svg" viewBox="0 0 750 750"><defs><style>.cls-1{fill:#0a0a0a;}.cls-2{fill:#33dfbd;}</style></defs><g id="Logos"><circle class="cls-1" cx="375" cy="375" r="375"/><g><g><path class="cls-2" d="M541.43,432.88c11.55,19.96,18.17,43.16,18.17,67.88v67.87h-67.88v-67.87c0-37.49-30.39-67.88-67.88-67.88h-67.88v-67.88h67.88c37.49,0,67.88-30.39,67.88-67.88s-30.39-67.87-67.88-67.87v-67.88c24.73,0,47.92,6.62,67.88,18.17,20.62,11.91,37.8,29.11,49.71,49.71,11.57,19.96,18.17,43.14,18.17,67.87s-6.61,47.91-18.17,67.88c-7.38,12.78-16.79,24.24-27.8,33.95,11,9.7,20.41,21.16,27.8,33.94Z"/><polygon class="cls-2" points="288.08 500.77 423.84 500.77 423.84 568.64 220.2 568.64 220.2 229.25 423.84 229.25 423.84 297.12 288.08 297.12 288.08 500.77"/></g><path class="cls-2" d="M162.43,568.64c-4.35,0-8.24-.96-11.69-2.88-3.44-1.92-6.16-4.58-8.15-7.99-1.99-3.41-2.99-7.32-2.99-11.74s1-8.33,2.99-11.74c1.99-3.41,4.71-6.07,8.15-7.99,3.44-1.92,7.34-2.88,11.69-2.88s8.24,.96,11.69,2.88c3.44,1.92,6.16,4.58,8.15,7.99,1.99,3.41,2.99,7.32,2.99,11.74s-1,8.33-2.99,11.74c-1.99,3.41-4.71,6.07-8.15,7.99-3.44,1.92-7.34,2.88-11.69,2.88Zm0-4.24c5.51,0,9.95-1.67,13.32-5,3.37-3.33,5.05-7.79,5.05-13.37s-1.68-10.04-5.05-13.37c-3.37-3.33-7.81-5-13.32-5s-9.95,1.67-13.32,5c-3.37,3.33-5.05,7.79-5.05,13.37s1.69,10.04,5.05,13.37c3.37,3.33,7.81,5,13.32,5Zm-7.83-6.52v-24.13h9.24c2.68,0,4.71,.67,6.09,2.01,1.38,1.34,2.07,2.88,2.07,4.62,0,3.04-1.45,5.07-4.35,6.09v.87c1.16,.07,2.03,.47,2.61,1.2,.58,.73,.87,1.59,.87,2.61v6.74h-4.24v-6.63c0-1.52-.76-2.28-2.28-2.28h-5.76v8.91h-4.24Zm4.24-12.83h5.11c1.23,0,2.17-.38,2.83-1.14,.65-.76,.98-1.65,.98-2.66s-.33-1.88-.98-2.61c-.65-.72-1.59-1.09-2.83-1.09h-5.11v7.5Z"/></g></g></svg>