<?xml version="1.0" encoding="UTF-8"?><svg id="Capa_2" xmlns="http://www.w3.org/2000/svg" viewBox="0 0 431.55 291.86"><defs><style>.cls-1{fill:#33dfbd;}</style></defs><g id="Logos"><g><g><g><g><path class="cls-1" d="M20.49,277.89c-6.29,0-11.28-1.78-14.96-5.34-3.69-3.56-5.53-8.71-5.53-15.44v-12.09c0-6.73,1.84-11.88,5.53-15.44,3.69-3.56,8.67-5.34,14.96-5.34s10.97,1.72,14.34,5.16c3.37,3.44,5.05,8.13,5.05,14.08v.37h-7.89v-.59c0-3.49-.95-6.34-2.84-8.55-1.89-2.21-4.78-3.32-8.66-3.32s-7,1.19-9.21,3.57c-2.21,2.38-3.32,5.69-3.32,9.91v12.38c0,4.23,1.11,7.53,3.32,9.91,2.21,2.38,5.28,3.57,9.21,3.57s6.77-1.11,8.66-3.32c1.89-2.21,2.84-5.06,2.84-8.55v-1.25h7.89v1.03c0,5.95-1.68,10.64-5.05,14.08-3.37,3.44-8.14,5.16-14.34,5.16Z"/><path class="cls-1" d="M58.38,277.89c-2.61,0-4.93-.44-6.97-1.33-2.04-.88-3.66-2.19-4.86-3.91-1.2-1.72-1.81-3.81-1.81-6.27,0-3.69,1.31-6.47,3.94-8.37,2.63-1.89,5.93-2.84,9.91-2.84h11.06v-2.36c0-2.06-.64-3.75-1.92-5.05-1.28-1.3-3.24-1.95-5.9-1.95s-4.6,.62-5.97,1.84c-1.38,1.23-2.28,2.83-2.73,4.79l-7.08-2.29c.59-1.92,1.54-3.69,2.84-5.31,1.3-1.62,3.02-2.92,5.16-3.91,2.14-.98,4.75-1.47,7.85-1.47,4.72,0,8.43,1.2,11.13,3.61,2.7,2.41,4.05,5.82,4.05,10.25v14.96c0,1.47,.69,2.21,2.06,2.21h3.1v6.34h-5.68c-1.67,0-3.05-.44-4.13-1.33-1.08-.88-1.62-2.09-1.62-3.61v-.22h-1.18c-.39,.79-.98,1.66-1.77,2.62-.79,.96-1.94,1.79-3.46,2.51-1.52,.71-3.54,1.07-6.04,1.07Zm1.11-6.26c3,0,5.44-.87,7.33-2.62,1.89-1.74,2.84-4.14,2.84-7.19v-.74h-10.61c-2.02,0-3.64,.43-4.86,1.29-1.23,.86-1.84,2.13-1.84,3.8s.64,3,1.92,3.98c1.28,.98,3.02,1.47,5.23,1.47Z"/><path class="cls-1" d="M87.78,276.86v-36.34h7.44v4.27h1.18c.59-1.52,1.52-2.64,2.8-3.35,1.28-.71,2.9-1.07,4.86-1.07h4.35v6.85h-4.64c-2.51,0-4.53,.68-6.08,2.03-1.55,1.35-2.32,3.43-2.32,6.23v21.37h-7.59Z"/><path class="cls-1" d="M114.47,276.86v-51.59h7.59v51.59h-7.59Z"/><path class="cls-1" d="M148.52,277.89c-3.64,0-6.87-.75-9.69-2.25-2.83-1.5-5.05-3.65-6.67-6.45-1.62-2.8-2.43-6.12-2.43-9.95v-1.11c0-3.83,.81-7.14,2.43-9.91,1.62-2.78,3.84-4.93,6.67-6.45,2.83-1.52,6.06-2.29,9.69-2.29s6.88,.76,9.73,2.29c2.85,1.52,5.09,3.67,6.71,6.45,1.62,2.78,2.43,6.08,2.43,9.91v1.11c0,3.83-.81,7.15-2.43,9.95-1.62,2.8-3.86,4.95-6.71,6.45-2.85,1.5-6.09,2.25-9.73,2.25Zm0-6.78c3.34,0,6.06-1.07,8.14-3.21,2.09-2.14,3.13-5.1,3.13-8.88v-.66c0-3.78-1.04-6.74-3.13-8.88-2.09-2.14-4.8-3.21-8.14-3.21s-6.04,1.07-8.11,3.21c-2.06,2.14-3.1,5.1-3.1,8.88v.66c0,3.78,1.04,6.74,3.13,8.88,2.09,2.14,4.78,3.21,8.07,3.21Z"/><path class="cls-1" d="M189.87,277.89c-4.67,0-8.53-1.03-11.57-3.1-3.05-2.06-4.89-5.18-5.53-9.36l7.08-1.7c.54,3.05,1.73,5.15,3.57,6.3,1.84,1.15,3.99,1.73,6.45,1.73s4.26-.45,5.56-1.36c1.3-.91,1.95-2.12,1.95-3.65s-.62-2.55-1.84-3.24c-1.23-.69-3.02-1.25-5.38-1.7l-2.58-.44c-2.46-.44-4.69-1.08-6.71-1.92-2.02-.83-3.61-1.99-4.79-3.46-1.18-1.47-1.77-3.37-1.77-5.68,0-3.44,1.28-6.11,3.83-8,2.55-1.89,5.94-2.84,10.17-2.84s7.43,.92,10.06,2.76c2.63,1.84,4.34,4.34,5.12,7.48l-7.08,1.99c-.44-2.21-1.38-3.77-2.8-4.68-1.43-.91-3.19-1.36-5.31-1.36s-3.69,.38-4.86,1.14c-1.18,.76-1.77,1.83-1.77,3.21,0,1.47,.58,2.56,1.73,3.24,1.15,.69,2.71,1.2,4.68,1.55l2.58,.44c2.6,.44,4.98,1.07,7.11,1.88,2.14,.81,3.84,1.94,5.12,3.39,1.28,1.45,1.92,3.4,1.92,5.86,0,3.69-1.36,6.52-4.09,8.51-2.73,1.99-6.35,2.98-10.87,2.98Z"/></g><g><path class="cls-1" d="M213.24,277.12v-51.59h21.67c3.19,0,5.99,.57,8.4,1.7,2.41,1.13,4.3,2.72,5.68,4.75,1.38,2.04,2.06,4.48,2.06,7.33v.81c0,3.24-.77,5.84-2.32,7.78-1.55,1.94-3.43,3.31-5.64,4.09v1.18c1.87,.1,3.37,.74,4.5,1.92,1.13,1.18,1.7,2.83,1.7,4.94v17.1h-7.96v-15.99c0-1.33-.36-2.38-1.07-3.17-.71-.79-1.83-1.18-3.35-1.18h-15.7v20.34h-7.96Zm7.96-27.57h12.82c2.85,0,5.06-.71,6.63-2.14,1.57-1.42,2.36-3.41,2.36-5.97v-.59c0-2.51-.77-4.48-2.32-5.93-1.55-1.45-3.77-2.17-6.67-2.17h-12.82v16.81Z"/><path class="cls-1" d="M274.86,278.15c-3.69,0-6.9-.77-9.66-2.32-2.75-1.55-4.9-3.72-6.45-6.52-1.55-2.8-2.32-6.09-2.32-9.88v-.88c0-3.78,.77-7.08,2.32-9.88,1.55-2.8,3.67-4.99,6.38-6.56,2.7-1.57,5.85-2.36,9.43-2.36s6.55,.77,9.18,2.32c2.63,1.55,4.68,3.7,6.15,6.45,1.47,2.75,2.21,5.97,2.21,9.66v2.87h-27.93c.1,3.19,1.17,5.74,3.21,7.63,2.04,1.89,4.58,2.84,7.63,2.84,2.85,0,5-.64,6.45-1.92,1.45-1.28,2.57-2.75,3.35-4.42l6.34,3.24c-.74,1.38-1.74,2.83-3.02,4.35-1.28,1.52-3,2.8-5.16,3.83-2.16,1.03-4.86,1.55-8.11,1.55Zm-10.61-22.92h20.2c-.25-2.7-1.25-4.84-3.02-6.41-1.77-1.57-4.08-2.36-6.93-2.36s-5.17,.79-6.97,2.36c-1.79,1.57-2.89,3.71-3.28,6.41Z"/><path class="cls-1" d="M303.6,291.86v-6.63h20.27c1.38,0,2.06-.74,2.06-2.21v-11.2h-1.18c-.69,1.43-1.9,2.78-3.65,4.05-1.74,1.28-4.34,1.92-7.78,1.92-2.75,0-5.21-.61-7.37-1.84-2.16-1.23-3.86-2.97-5.09-5.23-1.23-2.26-1.84-4.94-1.84-8.03v-21.89h7.59v21.3c0,3.15,.79,5.47,2.36,6.97,1.57,1.5,3.76,2.25,6.56,2.25,3.1,0,5.59-1.04,7.48-3.13,1.89-2.09,2.84-5.07,2.84-8.96v-18.43h7.59v43.78c0,2.21-.65,3.98-1.95,5.31-1.3,1.33-3.08,1.99-5.34,1.99h-22.55Z"/><path class="cls-1" d="M359.47,278.15c-3.69,0-6.9-.77-9.66-2.32-2.75-1.55-4.9-3.72-6.45-6.52-1.55-2.8-2.32-6.09-2.32-9.88v-.88c0-3.78,.77-7.08,2.32-9.88,1.55-2.8,3.67-4.99,6.38-6.56,2.7-1.57,5.85-2.36,9.43-2.36s6.55,.77,9.18,2.32c2.63,1.55,4.68,3.7,6.15,6.45,1.47,2.75,2.21,5.97,2.21,9.66v2.87h-27.93c.1,3.19,1.17,5.74,3.21,7.63,2.04,1.89,4.58,2.84,7.63,2.84,2.85,0,5-.64,6.45-1.92,1.45-1.28,2.57-2.75,3.35-4.42l6.34,3.24c-.74,1.38-1.74,2.83-3.02,4.35-1.28,1.52-3,2.8-5.16,3.83-2.16,1.03-4.86,1.55-8.11,1.55Zm-10.61-22.92h20.2c-.25-2.7-1.25-4.84-3.02-6.41-1.77-1.57-4.08-2.36-6.93-2.36s-5.17,.79-6.97,2.36c-1.79,1.57-2.89,3.71-3.28,6.41Z"/><path class="cls-1" d="M398.91,278.15c-4.67,0-8.53-1.03-11.57-3.1-3.05-2.06-4.89-5.18-5.53-9.36l7.08-1.7c.54,3.05,1.73,5.15,3.57,6.3,1.84,1.15,3.99,1.73,6.45,1.73s4.26-.45,5.56-1.36c1.3-.91,1.95-2.12,1.95-3.65s-.62-2.55-1.84-3.24c-1.23-.69-3.02-1.25-5.38-1.7l-2.58-.44c-2.46-.44-4.69-1.08-6.71-1.92-2.02-.83-3.61-1.99-4.79-3.46-1.18-1.47-1.77-3.37-1.77-5.68,0-3.44,1.28-6.11,3.83-8,2.55-1.89,5.94-2.84,10.17-2.84s7.43,.92,10.06,2.76c2.63,1.84,4.34,4.34,5.12,7.48l-7.08,1.99c-.44-2.21-1.38-3.77-2.8-4.68-1.43-.91-3.19-1.36-5.31-1.36s-3.69,.38-4.86,1.14c-1.18,.76-1.77,1.83-1.77,3.21,0,1.47,.58,2.56,1.73,3.24,1.15,.69,2.71,1.2,4.68,1.55l2.58,.44c2.6,.44,4.98,1.07,7.11,1.88,2.14,.81,3.84,1.94,5.12,3.39,1.28,1.45,1.92,3.4,1.92,5.86,0,3.69-1.36,6.52-4.09,8.51-2.73,1.99-6.35,2.98-10.87,2.98Z"/></g></g><path class="cls-1" d="M271.73,113.65c4.84,8.36,7.61,18.06,7.61,28.41v28.41h-28.41v-28.41c0-15.69-12.72-28.41-28.41-28.41h-28.41v-28.41h28.41c15.69,0,28.41-12.72,28.41-28.41s-12.72-28.41-28.41-28.41V0c10.35,0,20.06,2.77,28.41,7.61,8.63,4.99,15.82,12.18,20.81,20.81,4.84,8.36,7.61,18.06,7.61,28.41s-2.77,20.05-7.61,28.41c-3.09,5.35-7.03,10.15-11.64,14.21,4.6,4.06,8.54,8.86,11.64,14.2Z"/><polygon class="cls-1" points="165.69 142.07 222.51 142.07 222.51 170.48 137.27 170.48 137.27 28.41 222.51 28.41 222.51 56.82 165.69 56.82 165.69 142.07"/><path class="cls-1" d="M114.47,170.48c-1.82,0-3.45-.4-4.89-1.21-1.44-.8-2.58-1.92-3.41-3.34-.83-1.43-1.25-3.06-1.25-4.91s.42-3.49,1.25-4.91c.83-1.43,1.97-2.54,3.41-3.34,1.44-.8,3.07-1.21,4.89-1.21s3.45,.4,4.89,1.21c1.44,.8,2.58,1.92,3.41,3.34,.83,1.43,1.25,3.06,1.25,4.91s-.42,3.49-1.25,4.91c-.83,1.43-1.97,2.54-3.41,3.34-1.44,.8-3.07,1.21-4.89,1.21Zm0-1.77c2.3,0,4.16-.7,5.57-2.09,1.41-1.4,2.12-3.26,2.12-5.6s-.71-4.2-2.12-5.6c-1.41-1.4-3.27-2.09-5.57-2.09s-4.16,.7-5.57,2.09c-1.41,1.4-2.12,3.26-2.12,5.6s.71,4.2,2.12,5.6c1.41,1.4,3.27,2.09,5.57,2.09Zm-3.28-2.73v-10.1h3.87c1.12,0,1.97,.28,2.55,.84,.58,.56,.86,1.21,.86,1.93,0,1.27-.61,2.12-1.82,2.55v.36c.48,.03,.85,.2,1.09,.5,.24,.3,.36,.67,.36,1.09v2.82h-1.77v-2.78c0-.64-.32-.96-.96-.96h-2.41v3.73h-1.77Zm1.77-5.37h2.14c.52,0,.91-.16,1.18-.48,.27-.32,.41-.69,.41-1.11s-.14-.79-.41-1.09c-.27-.3-.67-.46-1.18-.46h-2.14v3.14Z"/></g><path class="cls-1" d="M416.75,237.21v-6.92h-2.81v-1.29h7.03v1.29h-2.77v6.92h-1.44Zm5.33,0v-8.21h2.74l1.85,6.88h.26l1.89-6.88h2.74v8.21h-1.48v-6.92h-.26l-1.89,6.92h-2.22l-1.92-6.92h-.26v6.92h-1.44Z"/></g></g></svg>