<svg xmlns="http://www.w3.org/2000/svg" xmlns:xlink="http://www.w3.org/1999/xlink" aria-hidden="true" role="img" class="iconify iconify--ph" width="32" height="32" preserveAspectRatio="xMidYMid meet" viewBox="0 0 256 256"><path fill="#33dfbd" d="M248 216a8 8 0 0 1-8 8H96a8 8 0 0 1 0-16h144a8 8 0 0 1 8 8Zm-26.2-24.3L45.2 142.2A40.1 40.1 0 0 1 16 103.7V51.1a16 16 0 0 1 21.1-15.2l13.4 4.5a8.3 8.3 0 0 1 4.6 3.8l14.4 27.1L88 77.1v-26a16 16 0 0 1 21.1-15.2l13.4 4.5a7.5 7.5 0 0 1 4.4 3.6l30.4 53.2l45.4 12.6a40 40 0 0 1 29.3 38.5V184a8.1 8.1 0 0 1-3.2 6.4a8.4 8.4 0 0 1-4.8 1.6Zm-5.8-43.4a24.1 24.1 0 0 0-17.6-23.1l-48.5-13.5a7.9 7.9 0 0 1-4.8-3.7l-30.5-53.4l-10.6-3.5V88a7.9 7.9 0 0 1-3.3 6.4a7.6 7.6 0 0 1-7.1 1.2l-32-10a8.1 8.1 0 0 1-4.7-3.8L42.4 54.6L32 51.1v52.6a24 24 0 0 0 17.5 23.1L216 173.5Z"></path></svg>