<?xml version="1.0" encoding="UTF-8"?><svg id="Capa_2" xmlns="http://www.w3.org/2000/svg" viewBox="0 0 427.6 191.96"><defs><style>.cls-1{fill:#33dfbd;}</style></defs><g id="Logos"><g><g><g><path class="cls-1" d="M242.67,115.37c-6.31,0-11.32-1.78-15.02-5.35-3.7-3.57-5.55-8.73-5.56-15.49v-12.13c-.02-6.75,1.83-11.92,5.52-15.5,3.69-3.58,8.69-5.37,15.01-5.38s11.01,1.72,14.39,5.16c3.38,3.45,5.07,8.15,5.08,14.12v.37h-7.91v-.58c0-3.5-.96-6.36-2.86-8.57-1.9-2.22-4.8-3.32-8.69-3.32s-7.02,1.2-9.24,3.59c-2.22,2.39-3.32,5.71-3.32,9.95v12.42c.02,4.24,1.13,7.55,3.35,9.94,2.22,2.39,5.3,3.58,9.25,3.58s6.79-1.12,8.69-3.34c1.9-2.22,2.84-5.08,2.84-8.58v-1.26h7.91v1.03c0,5.97-1.68,10.68-5.05,14.13-3.37,3.45-8.17,5.18-14.38,5.19Z"/><path class="cls-1" d="M280.68,115.33c-2.61,0-4.94-.44-6.99-1.32-2.05-.89-3.68-2.19-4.88-3.91-1.21-1.72-1.82-3.82-1.82-6.28,0-3.7,1.31-6.5,3.95-8.4,2.63-1.9,5.95-2.85,9.94-2.86h11.09v-2.38c0-2.07-.65-3.76-1.93-5.06-1.28-1.3-3.26-1.96-5.92-1.95s-4.61,.62-5.99,1.85c-1.38,1.23-2.29,2.84-2.73,4.81l-7.1-2.29c.59-1.92,1.54-3.7,2.84-5.33,1.3-1.63,3.03-2.94,5.17-3.92,2.14-.99,4.77-1.48,7.87-1.49,4.73,0,8.46,1.2,11.17,3.61,2.71,2.41,4.07,5.84,4.08,10.27v15.01c.02,1.48,.71,2.22,2.09,2.22h3.11v6.36h-5.69c-1.68,0-3.06-.44-4.14-1.32-1.09-.89-1.63-2.09-1.63-3.62v-.22h-1.18c-.39,.79-.99,1.67-1.77,2.63-.79,.96-1.95,1.8-3.47,2.52-1.53,.72-3.55,1.08-6.06,1.08Zm1.1-6.29c3.01,0,5.46-.88,7.36-2.63,1.9-1.75,2.84-4.15,2.84-7.21v-.74h-10.65c-2.02,.01-3.65,.45-4.88,1.31-1.23,.86-1.85,2.13-1.85,3.81s.64,3.01,1.93,3.99c1.28,.99,3.03,1.48,5.25,1.47Z"/><path class="cls-1" d="M310.18,114.27l-.03-36.45h7.47v4.28h1.19c.59-1.53,1.52-2.65,2.81-3.37,1.28-.72,2.91-1.07,4.88-1.08h4.36v6.87h-4.65c-2.51,0-4.55,.69-6.1,2.04-1.55,1.36-2.33,3.44-2.32,6.25l.02,21.44h-7.62Z"/><path class="cls-1" d="M336.95,114.25l-.05-51.76h7.62l.05,51.75h-7.62Z"/><path class="cls-1" d="M371.11,115.25c-3.65,0-6.89-.75-9.73-2.25-2.84-1.5-5.07-3.66-6.7-6.46-1.63-2.81-2.45-6.13-2.45-9.98v-1.11c0-3.85,.81-7.16,2.43-9.95,1.62-2.79,3.85-4.95,6.69-6.48,2.83-1.53,6.07-2.3,9.72-2.3s6.9,.76,9.76,2.28c2.86,1.53,5.11,3.68,6.73,6.46,1.63,2.78,2.45,6.1,2.45,9.94v1.11c0,3.85-.81,7.17-2.43,9.98-1.62,2.81-3.87,4.97-6.72,6.48-2.86,1.51-6.11,2.26-9.76,2.26Zm0-6.8c3.35,0,6.07-1.08,8.17-3.22,2.09-2.15,3.14-5.12,3.13-8.91v-.67c0-3.8-1.05-6.76-3.15-8.91-2.1-2.14-4.82-3.21-8.17-3.21s-6.06,1.08-8.13,3.22c-2.07,2.15-3.1,5.12-3.1,8.91v.67c0,3.8,1.05,6.76,3.15,8.91,2.1,2.14,4.8,3.21,8.1,3.21Z"/><path class="cls-1" d="M412.6,115.21c-4.68,0-8.55-1.03-11.61-3.09-3.06-2.07-4.91-5.2-5.55-9.39l7.1-1.71c.54,3.06,1.74,5.16,3.59,6.32,1.85,1.16,4.01,1.73,6.47,1.73s4.28-.46,5.58-1.37c1.3-.91,1.96-2.13,1.96-3.66,0-1.48-.62-2.56-1.85-3.25-1.23-.69-3.03-1.25-5.4-1.7l-2.59-.44c-2.47-.44-4.71-1.08-6.73-1.92-2.02-.84-3.63-1.99-4.81-3.47-1.18-1.48-1.78-3.37-1.78-5.69,0-3.45,1.28-6.13,3.84-8.03,2.56-1.9,5.96-2.85,10.2-2.86s7.46,.92,10.1,2.76c2.64,1.85,4.35,4.35,5.15,7.5l-7.1,2c-.45-2.22-1.38-3.78-2.81-4.69-1.43-.91-3.21-1.37-5.33-1.36s-3.7,.39-4.88,1.15c-1.18,.77-1.77,1.84-1.77,3.22,0,1.48,.58,2.56,1.74,3.25,1.16,.69,2.72,1.21,4.7,1.55l2.59,.44c2.61,.44,4.99,1.07,7.14,1.88,2.15,.81,3.86,1.94,5.14,3.4,1.28,1.45,1.93,3.41,1.93,5.88,0,3.7-1.36,6.55-4.1,8.54s-6.37,3-10.9,3Z"/></g><g><path class="cls-1" d="M222.47,177.26l-.05-51.76,21.74-.02c3.2,0,6.01,.56,8.43,1.69,2.42,1.13,4.32,2.72,5.7,4.76,1.38,2.04,2.07,4.5,2.08,7.36v.81c0,3.25-.77,5.86-2.32,7.8-1.55,1.95-3.44,3.32-5.65,4.11v1.18c1.87,.1,3.38,.74,4.51,1.92,1.13,1.18,1.7,2.83,1.71,4.95l.02,17.16h-7.99l-.02-16.04c0-1.33-.36-2.39-1.08-3.18-.72-.79-1.84-1.18-3.37-1.18h-15.75l.02,20.42h-7.99Zm7.96-27.66h12.87c2.86-.01,5.08-.73,6.65-2.16,1.58-1.43,2.36-3.43,2.36-5.99v-.59c0-2.51-.78-4.5-2.34-5.95-1.55-1.45-3.79-2.18-6.69-2.18h-12.87l.02,16.87Z"/><path class="cls-1" d="M284.29,178.23c-3.7,0-6.93-.77-9.69-2.32-2.76-1.55-4.92-3.73-6.48-6.54-1.56-2.81-2.34-6.11-2.34-9.91v-.89c0-3.8,.77-7.1,2.32-9.91,1.55-2.81,3.68-5.01,6.39-6.59,2.71-1.58,5.86-2.37,9.46-2.38s6.57,.77,9.21,2.32c2.64,1.55,4.7,3.71,6.18,6.46,1.48,2.76,2.22,5.99,2.23,9.68v2.88l-28.02,.03c.1,3.21,1.18,5.75,3.22,7.65,2.05,1.9,4.6,2.84,7.66,2.84,2.86,0,5.01-.64,6.47-1.93,1.45-1.28,2.57-2.76,3.36-4.44l6.36,3.25c-.74,1.38-1.75,2.84-3.03,4.37-1.28,1.53-3,2.81-5.17,3.85-2.17,1.04-4.88,1.56-8.13,1.56Zm-10.67-22.99l20.26-.02c-.25-2.71-1.26-4.85-3.04-6.43-1.78-1.58-4.09-2.36-6.95-2.36s-5.19,.79-6.99,2.37c-1.8,1.58-2.89,3.73-3.28,6.44Z"/><path class="cls-1" d="M313.14,191.96v-6.65l20.33-.02c1.38,0,2.07-.74,2.07-2.22v-11.24h-1.19c-.69,1.43-1.91,2.79-3.66,4.07-1.75,1.28-4.35,1.93-7.8,1.93-2.76,0-5.23-.61-7.4-1.84-2.17-1.23-3.87-2.98-5.11-5.25-1.23-2.27-1.85-4.95-1.86-8.06l-.02-21.96h7.62l.02,21.36c0,3.16,.79,5.48,2.37,6.99,1.58,1.5,3.77,2.25,6.58,2.25,3.11,0,5.61-1.05,7.5-3.15,1.9-2.1,2.84-5.09,2.84-8.99l-.02-18.49h7.62l.04,43.92c0,2.22-.65,3.99-1.95,5.33-1.31,1.33-3.09,2-5.36,2l-22.63,.02Z"/><path class="cls-1" d="M369.18,178.15c-3.7,0-6.93-.77-9.69-2.32-2.76-1.55-4.92-3.73-6.48-6.54-1.56-2.81-2.34-6.11-2.34-9.91v-.89c0-3.8,.77-7.1,2.32-9.91,1.55-2.81,3.68-5.01,6.39-6.59,2.71-1.58,5.86-2.37,9.46-2.38s6.57,.77,9.21,2.32c2.64,1.55,4.7,3.71,6.18,6.46,1.48,2.76,2.22,5.99,2.23,9.68v2.88l-28.02,.03c.1,3.21,1.18,5.75,3.22,7.65,2.05,1.9,4.6,2.84,7.66,2.84,2.86,0,5.01-.64,6.47-1.93,1.45-1.28,2.57-2.76,3.36-4.44l6.36,3.25c-.74,1.38-1.75,2.84-3.03,4.37-1.28,1.53-3,2.81-5.17,3.85-2.17,1.04-4.88,1.56-8.13,1.56Zm-10.67-22.99l20.26-.02c-.25-2.71-1.26-4.85-3.04-6.43-1.78-1.58-4.09-2.36-6.95-2.36s-5.19,.79-6.99,2.37c-1.8,1.58-2.89,3.73-3.28,6.44Z"/><path class="cls-1" d="M408.74,178.12c-4.68,0-8.55-1.03-11.61-3.09-3.06-2.07-4.91-5.2-5.55-9.39l7.1-1.71c.54,3.06,1.74,5.16,3.59,6.32,1.85,1.16,4.01,1.73,6.47,1.73s4.28-.46,5.58-1.37c1.3-.91,1.96-2.13,1.96-3.66,0-1.48-.62-2.56-1.85-3.25-1.23-.69-3.03-1.25-5.4-1.7l-2.59-.44c-2.47-.44-4.71-1.08-6.73-1.92-2.02-.84-3.63-1.99-4.81-3.47-1.18-1.48-1.78-3.37-1.78-5.69,0-3.45,1.28-6.13,3.84-8.03,2.56-1.9,5.96-2.85,10.2-2.86s7.46,.92,10.1,2.76c2.64,1.85,4.35,4.35,5.15,7.5l-7.1,2c-.45-2.22-1.38-3.78-2.81-4.69-1.43-.91-3.21-1.37-5.33-1.36s-3.7,.39-4.88,1.15c-1.18,.77-1.77,1.84-1.77,3.22,0,1.48,.58,2.56,1.74,3.25,1.16,.69,2.72,1.21,4.7,1.55l2.59,.44c2.61,.44,4.99,1.07,7.14,1.88,2.15,.81,3.86,1.94,5.14,3.4,1.28,1.45,1.93,3.41,1.93,5.88,0,3.7-1.36,6.55-4.1,8.54-2.73,2-6.37,3-10.9,3Z"/></g></g><g><path class="cls-1" d="M139.99,118.21c5.04,8.69,7.93,18.79,7.94,29.56l.03,29.56-29.57,.03-.03-29.56c-.02-16.33-13.27-29.55-29.59-29.54l-29.57,.03-.03-29.57,29.57-.03c16.33-.02,29.55-13.27,29.54-29.59-.02-16.33-13.27-29.55-29.59-29.53L88.66,0c10.77-.01,20.87,2.86,29.57,7.89,8.98,5.18,16.47,12.66,21.67,21.63,5.05,8.69,7.93,18.78,7.94,29.55,.01,10.77-2.86,20.87-7.89,29.57-3.21,5.57-7.3,10.56-12.1,14.8,4.79,4.22,8.9,9.21,12.12,14.77Z"/><polygon class="cls-1" points="29.68 147.88 88.8 147.82 88.83 177.38 .14 177.47 0 29.65 88.69 29.57 88.72 59.13 29.59 59.18 29.68 147.88"/></g><path class="cls-1" d="M183.03,66.9v-10.23h-4.17v-1.91h10.39v1.91h-4.1v10.23h-2.12Zm7.88,0v-12.14h4.04l2.74,10.17h.38l2.78-10.18h4.05v12.14h-2.18v-10.23h-.39l-2.78,10.23h-3.28l-2.85-10.22h-.38v10.23h-2.12Z"/></g></g></svg>