<?xml version="1.0" encoding="UTF-8"?><svg id="Capa_2" xmlns="http://www.w3.org/2000/svg" viewBox="0 0 427.53 192.17"><defs><style>.cls-1{fill:#0a0a0a;}</style></defs><g id="Logos"><g><g><g><path class="cls-1" d="M242.59,115.51c-6.31,0-11.31-1.79-15.01-5.36-3.7-3.57-5.55-8.74-5.55-15.49v-12.13c0-6.75,1.85-11.92,5.55-15.49,3.7-3.57,8.7-5.36,15.01-5.36s11,1.73,14.38,5.18c3.38,3.45,5.07,8.16,5.07,14.12v.37h-7.91v-.59c0-3.5-.95-6.36-2.85-8.58-1.9-2.22-4.79-3.33-8.69-3.33s-7.02,1.2-9.24,3.59c-2.22,2.39-3.33,5.71-3.33,9.95v12.42c0,4.24,1.11,7.55,3.33,9.95,2.22,2.39,5.3,3.59,9.24,3.59s6.79-1.11,8.69-3.33c1.9-2.22,2.85-5.08,2.85-8.58v-1.26h7.91v1.03c0,5.97-1.69,10.67-5.07,14.12-3.38,3.45-8.17,5.18-14.38,5.18Z"/><path class="cls-1" d="M280.6,115.51c-2.61,0-4.94-.44-6.99-1.33-2.05-.89-3.67-2.19-4.88-3.92-1.21-1.73-1.81-3.82-1.81-6.29,0-3.7,1.32-6.49,3.96-8.39,2.64-1.9,5.95-2.85,9.95-2.85h11.09v-2.37c0-2.07-.64-3.76-1.92-5.07-1.28-1.31-3.25-1.96-5.92-1.96s-4.61,.62-5.99,1.85c-1.38,1.23-2.29,2.84-2.74,4.81l-7.1-2.29c.59-1.92,1.54-3.7,2.85-5.32,1.31-1.63,3.03-2.93,5.18-3.92,2.14-.99,4.77-1.48,7.87-1.48,4.73,0,8.45,1.21,11.17,3.62,2.71,2.42,4.07,5.84,4.07,10.28v15.01c0,1.48,.69,2.22,2.07,2.22h3.11v6.36h-5.69c-1.68,0-3.06-.44-4.14-1.33-1.08-.89-1.63-2.09-1.63-3.62v-.22h-1.18c-.4,.79-.99,1.66-1.77,2.62-.79,.96-1.95,1.8-3.48,2.51-1.53,.71-3.55,1.07-6.06,1.07Zm1.11-6.28c3.01,0,5.46-.87,7.36-2.63,1.9-1.75,2.85-4.15,2.85-7.21v-.74h-10.65c-2.02,0-3.65,.43-4.88,1.29-1.23,.86-1.85,2.13-1.85,3.81s.64,3.01,1.92,3.99c1.28,.99,3.03,1.48,5.25,1.48Z"/><path class="cls-1" d="M310.1,114.48v-36.45h7.47v4.29h1.18c.59-1.53,1.53-2.65,2.81-3.36,1.28-.71,2.91-1.07,4.88-1.07h4.36v6.88h-4.66c-2.51,0-4.55,.68-6.1,2.03-1.55,1.36-2.33,3.44-2.33,6.25v21.44h-7.62Z"/><path class="cls-1" d="M336.87,114.48V62.72h7.62v51.76h-7.62Z"/><path class="cls-1" d="M371.03,115.51c-3.65,0-6.89-.75-9.72-2.26-2.84-1.5-5.07-3.66-6.69-6.47-1.63-2.81-2.44-6.14-2.44-9.98v-1.11c0-3.85,.81-7.16,2.44-9.95,1.63-2.78,3.86-4.94,6.69-6.47,2.83-1.53,6.07-2.29,9.72-2.29s6.9,.77,9.76,2.29c2.86,1.53,5.1,3.69,6.73,6.47,1.63,2.79,2.44,6.1,2.44,9.95v1.11c0,3.85-.81,7.17-2.44,9.98-1.63,2.81-3.87,4.97-6.73,6.47-2.86,1.5-6.11,2.26-9.76,2.26Zm0-6.8c3.35,0,6.08-1.07,8.17-3.22,2.09-2.14,3.14-5.11,3.14-8.91v-.67c0-3.8-1.05-6.77-3.14-8.91-2.1-2.14-4.82-3.22-8.17-3.22s-6.06,1.07-8.13,3.22c-2.07,2.14-3.11,5.12-3.11,8.91v.67c0,3.8,1.05,6.77,3.14,8.91,2.09,2.14,4.79,3.22,8.1,3.22Z"/><path class="cls-1" d="M412.52,115.51c-4.68,0-8.55-1.03-11.61-3.11-3.06-2.07-4.91-5.2-5.55-9.39l7.1-1.7c.54,3.06,1.74,5.16,3.59,6.32,1.85,1.16,4,1.74,6.47,1.74s4.28-.46,5.58-1.37c1.31-.91,1.96-2.13,1.96-3.66s-.62-2.56-1.85-3.25c-1.23-.69-3.03-1.26-5.4-1.7l-2.59-.44c-2.47-.44-4.71-1.08-6.73-1.92-2.02-.84-3.62-2-4.81-3.48-1.18-1.48-1.77-3.38-1.77-5.69,0-3.45,1.28-6.12,3.85-8.02,2.56-1.9,5.96-2.85,10.2-2.85s7.46,.92,10.09,2.77c2.64,1.85,4.35,4.35,5.14,7.51l-7.1,2c-.44-2.22-1.38-3.78-2.81-4.7-1.43-.91-3.21-1.37-5.32-1.37s-3.7,.38-4.88,1.15c-1.18,.77-1.77,1.84-1.77,3.22,0,1.48,.58,2.56,1.74,3.25,1.16,.69,2.72,1.21,4.7,1.55l2.59,.44c2.61,.44,4.99,1.07,7.14,1.89,2.14,.81,3.86,1.95,5.14,3.4,1.28,1.45,1.92,3.41,1.92,5.88,0,3.7-1.37,6.54-4.1,8.54-2.74,2-6.37,2.99-10.91,2.99Z"/></g><g><path class="cls-1" d="M222.33,177.38v-51.76h21.74c3.2,0,6.01,.57,8.43,1.7,2.41,1.13,4.31,2.72,5.69,4.77,1.38,2.05,2.07,4.5,2.07,7.36v.81c0,3.25-.78,5.85-2.33,7.8-1.55,1.95-3.44,3.32-5.66,4.1v1.18c1.87,.1,3.38,.74,4.51,1.92,1.13,1.18,1.7,2.84,1.7,4.95v17.16h-7.99v-16.05c0-1.33-.36-2.39-1.07-3.18-.72-.79-1.84-1.18-3.36-1.18h-15.75v20.41h-7.99Zm7.99-27.66h12.87c2.86,0,5.08-.71,6.66-2.14,1.58-1.43,2.37-3.43,2.37-5.99v-.59c0-2.51-.78-4.5-2.33-5.95-1.55-1.45-3.78-2.18-6.69-2.18h-12.87v16.86Z"/><path class="cls-1" d="M284.15,178.42c-3.7,0-6.93-.78-9.69-2.33-2.76-1.55-4.92-3.73-6.47-6.54-1.55-2.81-2.33-6.11-2.33-9.91v-.89c0-3.8,.78-7.1,2.33-9.91,1.55-2.81,3.68-5,6.4-6.58,2.71-1.58,5.87-2.37,9.46-2.37s6.57,.78,9.21,2.33c2.64,1.55,4.7,3.71,6.17,6.47,1.48,2.76,2.22,5.99,2.22,9.69v2.88h-28.02c.1,3.21,1.17,5.76,3.22,7.65,2.04,1.9,4.6,2.85,7.65,2.85,2.86,0,5.02-.64,6.47-1.92,1.45-1.28,2.58-2.76,3.36-4.44l6.36,3.25c-.74,1.38-1.75,2.84-3.03,4.36-1.28,1.53-3.01,2.81-5.18,3.85-2.17,1.03-4.88,1.55-8.13,1.55Zm-10.65-23h20.26c-.25-2.71-1.26-4.85-3.03-6.43-1.77-1.58-4.09-2.37-6.95-2.37s-5.19,.79-6.99,2.37c-1.8,1.58-2.9,3.72-3.29,6.43Z"/><path class="cls-1" d="M312.99,192.17v-6.65h20.33c1.38,0,2.07-.74,2.07-2.22v-11.24h-1.18c-.69,1.43-1.91,2.79-3.66,4.07-1.75,1.28-4.35,1.92-7.8,1.92-2.76,0-5.23-.62-7.39-1.85-2.17-1.23-3.87-2.98-5.1-5.25-1.23-2.27-1.85-4.95-1.85-8.06v-21.96h7.62v21.37c0,3.16,.79,5.48,2.37,6.99,1.58,1.5,3.77,2.26,6.58,2.26,3.11,0,5.61-1.05,7.51-3.14,1.9-2.09,2.85-5.09,2.85-8.98v-18.49h7.62v43.92c0,2.22-.65,3.99-1.96,5.32-1.31,1.33-3.09,2-5.36,2h-22.63Z"/><path class="cls-1" d="M369.04,178.42c-3.7,0-6.93-.78-9.69-2.33-2.76-1.55-4.92-3.73-6.47-6.54-1.55-2.81-2.33-6.11-2.33-9.91v-.89c0-3.8,.78-7.1,2.33-9.91,1.55-2.81,3.68-5,6.4-6.58,2.71-1.58,5.87-2.37,9.46-2.37s6.57,.78,9.21,2.33c2.64,1.55,4.7,3.71,6.17,6.47,1.48,2.76,2.22,5.99,2.22,9.69v2.88h-28.02c.1,3.21,1.17,5.76,3.22,7.65,2.04,1.9,4.6,2.85,7.65,2.85,2.86,0,5.02-.64,6.47-1.92,1.45-1.28,2.58-2.76,3.36-4.44l6.36,3.25c-.74,1.38-1.75,2.84-3.03,4.36-1.28,1.53-3.01,2.81-5.18,3.85-2.17,1.03-4.88,1.55-8.13,1.55Zm-10.65-23h20.26c-.25-2.71-1.26-4.85-3.03-6.43-1.77-1.58-4.09-2.37-6.95-2.37s-5.19,.79-6.99,2.37c-1.8,1.58-2.9,3.72-3.29,6.43Z"/><path class="cls-1" d="M408.6,178.42c-4.68,0-8.55-1.03-11.61-3.11-3.06-2.07-4.91-5.2-5.55-9.39l7.1-1.7c.54,3.06,1.74,5.16,3.59,6.32,1.85,1.16,4,1.74,6.47,1.74s4.28-.46,5.58-1.37c1.31-.91,1.96-2.13,1.96-3.66s-.62-2.56-1.85-3.25c-1.23-.69-3.03-1.26-5.4-1.7l-2.59-.44c-2.47-.44-4.71-1.08-6.73-1.92-2.02-.84-3.62-2-4.81-3.48-1.18-1.48-1.77-3.38-1.77-5.69,0-3.45,1.28-6.12,3.85-8.02,2.56-1.9,5.96-2.85,10.2-2.85s7.46,.92,10.09,2.77c2.64,1.85,4.35,4.35,5.14,7.51l-7.1,2c-.44-2.22-1.38-3.78-2.81-4.7-1.43-.91-3.21-1.37-5.32-1.37s-3.7,.38-4.88,1.15c-1.18,.77-1.77,1.84-1.77,3.22,0,1.48,.58,2.56,1.74,3.25,1.16,.69,2.72,1.21,4.7,1.55l2.59,.44c2.61,.44,4.99,1.07,7.14,1.89,2.14,.81,3.86,1.95,5.14,3.4,1.28,1.45,1.92,3.41,1.92,5.88,0,3.7-1.37,6.54-4.1,8.54-2.74,2-6.37,2.99-10.91,2.99Z"/></g></g><g><path class="cls-1" d="M139.91,118.26c5.03,8.69,7.91,18.8,7.91,29.57v29.56h-29.57v-29.56c0-16.33-13.24-29.57-29.57-29.57h-29.57v-29.57h29.57c16.33,0,29.57-13.24,29.57-29.57s-13.24-29.56-29.57-29.56V0c10.77,0,20.87,2.88,29.57,7.91,8.98,5.19,16.46,12.68,21.65,21.65,5.04,8.69,7.91,18.79,7.91,29.56s-2.88,20.87-7.91,29.57c-3.21,5.56-7.31,10.56-12.11,14.79,4.79,4.22,8.89,9.22,12.11,14.78Z"/><polygon class="cls-1" points="29.57 147.82 88.69 147.82 88.69 177.38 0 177.38 0 29.57 88.69 29.57 88.69 59.13 29.57 59.13 29.57 147.82"/></g><path class="cls-1" d="M183,66.99v-10.23h-4.16v-1.91h10.39v1.91h-4.1v10.23h-2.13Zm7.88,0v-12.14h4.05l2.73,10.18h.38l2.79-10.18h4.05v12.14h-2.19v-10.23h-.38l-2.79,10.23h-3.28l-2.84-10.23h-.38v10.23h-2.13Z"/></g></g></svg>